<svg xmlns="http://www.w3.org/2000/svg" version="1.1" xmlns:xlink="http://www.w3.org/1999/xlink" xmlns:svgjs="http://svgjs.com/svgjs" width="1440" height="540" preserveAspectRatio="none" viewBox="0 0 1440 540"><g mask="url(&quot;#SvgjsMask1643&quot;)" fill="none"><rect width="1440" height="540" x="0" y="0" fill="url(#SvgjsLinearGradient1644)"></rect><use xlink:href="#SvgjsSymbol1651" x="0" y="0"></use><use xlink:href="#SvgjsSymbol1651" x="720" y="0"></use></g><defs><mask id="SvgjsMask1643"><rect width="1440" height="540" fill="#ffffff"></rect></mask><linearGradient x1="50%" y1="100%" x2="50%" y2="0%" gradientUnits="userSpaceOnUse" id="SvgjsLinearGradient1644"><stop stop-color="rgba(44, 14, 71, 1)" offset="0"></stop><stop stop-color="rgba(1, 1, 1, 1)" offset="1"></stop></linearGradient><path d="M-1 0 a1 1 0 1 0 2 0 a1 1 0 1 0 -2 0z" id="SvgjsPath1646"></path><path d="M-3 0 a3 3 0 1 0 6 0 a3 3 0 1 0 -6 0z" id="SvgjsPath1647"></path><path d="M-5 0 a5 5 0 1 0 10 0 a5 5 0 1 0 -10 0z" id="SvgjsPath1645"></path><path d="M2 -2 L-2 2z" id="SvgjsPath1649"></path><path d="M6 -6 L-6 6z" id="SvgjsPath1648"></path><path d="M30 -30 L-30 30z" id="SvgjsPath1650"></path></defs><symbol id="SvgjsSymbol1651"><use xlink:href="#SvgjsPath1645" x="30" y="30" stroke="rgba(142, 0, 255, 0.19)"></use><use xlink:href="#SvgjsPath1646" x="30" y="90" stroke="rgba(238, 0, 255, 0.17)"></use><use xlink:href="#SvgjsPath1647" x="30" y="150" stroke="rgba(142, 0, 255, 0.19)"></use><use xlink:href="#SvgjsPath1646" x="30" y="210" stroke="rgba(238, 0, 255, 0.17)"></use><use xlink:href="#SvgjsPath1646" x="30" y="270" stroke="rgba(238, 0, 255, 0.17)"></use><use xlink:href="#SvgjsPath1648" x="30" y="330" stroke="rgba(238, 0, 255, 0.17)"></use><use xlink:href="#SvgjsPath1648" x="30" y="390" stroke="rgba(142, 0, 255, 0.19)"></use><use xlink:href="#SvgjsPath1645" x="30" y="450" stroke="rgba(238, 0, 255, 0.17)"></use><use xlink:href="#SvgjsPath1648" x="30" y="510" stroke="rgba(142, 0, 255, 0.19)"></use><use xlink:href="#SvgjsPath1645" x="90" y="30" stroke="rgba(238, 0, 255, 0.17)"></use><use xlink:href="#SvgjsPath1649" x="90" y="90" stroke="rgba(142, 0, 255, 0.19)"></use><use xlink:href="#SvgjsPath1648" x="90" y="150" stroke="rgba(238, 0, 255, 0.17)"></use><use xlink:href="#SvgjsPath1648" x="90" y="210" stroke="rgba(238, 0, 255, 0.17)"></use><use xlink:href="#SvgjsPath1648" x="90" y="270" stroke="rgba(238, 0, 255, 0.17)"></use><use xlink:href="#SvgjsPath1648" x="90" y="330" stroke="rgba(238, 0, 255, 0.17)"></use><use xlink:href="#SvgjsPath1648" x="90" y="390" stroke="rgba(238, 0, 255, 0.17)"></use><use xlink:href="#SvgjsPath1649" x="90" y="450" stroke="rgba(238, 0, 255, 0.17)"></use><use xlink:href="#SvgjsPath1648" x="90" y="510" stroke="rgba(142, 0, 255, 0.19)"></use><use xlink:href="#SvgjsPath1645" x="150" y="30" stroke="rgba(142, 0, 255, 0.19)"></use><use xlink:href="#SvgjsPath1648" x="150" y="90" stroke="rgba(238, 0, 255, 0.17)"></use><use xlink:href="#SvgjsPath1648" x="150" y="150" stroke="rgba(142, 0, 255, 0.19)"></use><use xlink:href="#SvgjsPath1649" x="150" y="210" stroke="rgba(238, 0, 255, 0.17)"></use><use xlink:href="#SvgjsPath1646" x="150" y="270" stroke="rgba(142, 0, 255, 0.19)"></use><use xlink:href="#SvgjsPath1649" x="150" y="330" stroke="rgba(142, 0, 255, 0.19)"></use><use xlink:href="#SvgjsPath1646" x="150" y="390" stroke="rgba(142, 0, 255, 0.19)"></use><use xlink:href="#SvgjsPath1650" x="150" y="450" stroke="rgba(142, 0, 255, 0.19)" stroke-width="3"></use><use xlink:href="#SvgjsPath1649" x="150" y="510" stroke="rgba(238, 0, 255, 0.17)"></use><use xlink:href="#SvgjsPath1648" x="210" y="30" stroke="rgba(142, 0, 255, 0.19)"></use><use xlink:href="#SvgjsPath1648" x="210" y="90" stroke="rgba(142, 0, 255, 0.19)"></use><use xlink:href="#SvgjsPath1649" x="210" y="150" stroke="rgba(142, 0, 255, 0.19)"></use><use xlink:href="#SvgjsPath1648" x="210" y="210" stroke="rgba(238, 0, 255, 0.17)"></use><use xlink:href="#SvgjsPath1645" x="210" y="270" stroke="rgba(142, 0, 255, 0.19)"></use><use xlink:href="#SvgjsPath1645" x="210" y="330" stroke="rgba(238, 0, 255, 0.17)"></use><use xlink:href="#SvgjsPath1649" x="210" y="390" stroke="rgba(238, 0, 255, 0.17)"></use><use xlink:href="#SvgjsPath1646" x="210" y="450" stroke="rgba(238, 0, 255, 0.17)"></use><use xlink:href="#SvgjsPath1648" x="210" y="510" stroke="rgba(238, 0, 255, 0.17)"></use><use xlink:href="#SvgjsPath1645" x="270" y="30" stroke="rgba(238, 0, 255, 0.17)"></use><use xlink:href="#SvgjsPath1649" x="270" y="90" stroke="rgba(142, 0, 255, 0.19)"></use><use xlink:href="#SvgjsPath1645" x="270" y="150" stroke="rgba(142, 0, 255, 0.19)"></use><use xlink:href="#SvgjsPath1647" x="270" y="210" stroke="rgba(142, 0, 255, 0.19)"></use><use xlink:href="#SvgjsPath1648" x="270" y="270" stroke="rgba(142, 0, 255, 0.19)"></use><use xlink:href="#SvgjsPath1645" x="270" y="330" stroke="rgba(238, 0, 255, 0.17)"></use><use xlink:href="#SvgjsPath1645" x="270" y="390" stroke="rgba(238, 0, 255, 0.17)"></use><use xlink:href="#SvgjsPath1645" x="270" y="450" stroke="rgba(238, 0, 255, 0.17)"></use><use xlink:href="#SvgjsPath1648" x="270" y="510" stroke="rgba(142, 0, 255, 0.19)"></use><use xlink:href="#SvgjsPath1647" x="330" y="30" stroke="rgba(238, 0, 255, 0.17)"></use><use xlink:href="#SvgjsPath1645" x="330" y="90" stroke="rgba(142, 0, 255, 0.19)"></use><use xlink:href="#SvgjsPath1648" x="330" y="150" stroke="rgba(238, 0, 255, 0.17)"></use><use xlink:href="#SvgjsPath1645" x="330" y="210" stroke="rgba(238, 0, 255, 0.17)"></use><use xlink:href="#SvgjsPath1645" x="330" y="270" stroke="rgba(238, 0, 255, 0.17)"></use><use xlink:href="#SvgjsPath1648" x="330" y="330" stroke="rgba(142, 0, 255, 0.19)"></use><use xlink:href="#SvgjsPath1647" x="330" y="390" stroke="rgba(142, 0, 255, 0.19)"></use><use xlink:href="#SvgjsPath1646" x="330" y="450" stroke="rgba(238, 0, 255, 0.17)"></use><use xlink:href="#SvgjsPath1645" x="330" y="510" stroke="rgba(238, 0, 255, 0.17)"></use><use xlink:href="#SvgjsPath1645" x="390" y="30" stroke="rgba(238, 0, 255, 0.17)"></use><use xlink:href="#SvgjsPath1648" x="390" y="90" stroke="rgba(238, 0, 255, 0.17)"></use><use xlink:href="#SvgjsPath1648" x="390" y="150" stroke="rgba(142, 0, 255, 0.19)"></use><use xlink:href="#SvgjsPath1645" x="390" y="210" stroke="rgba(238, 0, 255, 0.17)"></use><use xlink:href="#SvgjsPath1648" x="390" y="270" stroke="rgba(238, 0, 255, 0.17)"></use><use xlink:href="#SvgjsPath1645" x="390" y="330" stroke="rgba(238, 0, 255, 0.17)"></use><use xlink:href="#SvgjsPath1649" x="390" y="390" stroke="rgba(238, 0, 255, 0.17)"></use><use xlink:href="#SvgjsPath1647" x="390" y="450" stroke="rgba(238, 0, 255, 0.17)"></use><use xlink:href="#SvgjsPath1649" x="390" y="510" stroke="rgba(238, 0, 255, 0.17)"></use><use xlink:href="#SvgjsPath1650" x="450" y="30" stroke="rgba(238, 0, 255, 0.17)" stroke-width="3"></use><use xlink:href="#SvgjsPath1650" x="450" y="90" stroke="rgba(238, 0, 255, 0.17)" stroke-width="3"></use><use xlink:href="#SvgjsPath1650" x="450" y="150" stroke="rgba(238, 0, 255, 0.17)" stroke-width="3"></use><use xlink:href="#SvgjsPath1645" x="450" y="210" stroke="rgba(238, 0, 255, 0.17)"></use><use xlink:href="#SvgjsPath1647" x="450" y="270" stroke="rgba(238, 0, 255, 0.17)"></use><use xlink:href="#SvgjsPath1649" x="450" y="330" stroke="rgba(238, 0, 255, 0.17)"></use><use xlink:href="#SvgjsPath1649" x="450" y="390" stroke="rgba(238, 0, 255, 0.17)"></use><use xlink:href="#SvgjsPath1645" x="450" y="450" stroke="rgba(238, 0, 255, 0.17)"></use><use xlink:href="#SvgjsPath1648" x="450" y="510" stroke="rgba(142, 0, 255, 0.19)"></use><use xlink:href="#SvgjsPath1648" x="510" y="30" stroke="rgba(142, 0, 255, 0.19)"></use><use xlink:href="#SvgjsPath1649" x="510" y="90" stroke="rgba(142, 0, 255, 0.19)"></use><use xlink:href="#SvgjsPath1648" x="510" y="150" stroke="rgba(142, 0, 255, 0.19)"></use><use xlink:href="#SvgjsPath1649" x="510" y="210" stroke="rgba(238, 0, 255, 0.17)"></use><use xlink:href="#SvgjsPath1649" x="510" y="270" stroke="rgba(142, 0, 255, 0.19)"></use><use xlink:href="#SvgjsPath1645" x="510" y="330" stroke="rgba(142, 0, 255, 0.19)"></use><use xlink:href="#SvgjsPath1648" x="510" y="390" stroke="rgba(142, 0, 255, 0.19)"></use><use xlink:href="#SvgjsPath1645" x="510" y="450" stroke="rgba(142, 0, 255, 0.19)"></use><use xlink:href="#SvgjsPath1647" x="510" y="510" stroke="rgba(238, 0, 255, 0.17)"></use><use xlink:href="#SvgjsPath1645" x="570" y="30" stroke="rgba(238, 0, 255, 0.17)"></use><use xlink:href="#SvgjsPath1645" x="570" y="90" stroke="rgba(142, 0, 255, 0.19)"></use><use xlink:href="#SvgjsPath1650" x="570" y="150" stroke="rgba(238, 0, 255, 0.17)" stroke-width="3"></use><use xlink:href="#SvgjsPath1648" x="570" y="210" stroke="rgba(142, 0, 255, 0.19)"></use><use xlink:href="#SvgjsPath1645" x="570" y="270" stroke="rgba(238, 0, 255, 0.17)"></use><use xlink:href="#SvgjsPath1648" x="570" y="330" stroke="rgba(238, 0, 255, 0.17)"></use><use xlink:href="#SvgjsPath1649" x="570" y="390" stroke="rgba(142, 0, 255, 0.19)"></use><use xlink:href="#SvgjsPath1649" x="570" y="450" stroke="rgba(238, 0, 255, 0.17)"></use><use xlink:href="#SvgjsPath1648" x="570" y="510" stroke="rgba(238, 0, 255, 0.17)"></use><use xlink:href="#SvgjsPath1649" x="630" y="30" stroke="rgba(238, 0, 255, 0.17)"></use><use xlink:href="#SvgjsPath1648" x="630" y="90" stroke="rgba(142, 0, 255, 0.19)"></use><use xlink:href="#SvgjsPath1646" x="630" y="150" stroke="rgba(238, 0, 255, 0.17)"></use><use xlink:href="#SvgjsPath1648" x="630" y="210" stroke="rgba(238, 0, 255, 0.17)"></use><use xlink:href="#SvgjsPath1647" x="630" y="270" stroke="rgba(142, 0, 255, 0.19)"></use><use xlink:href="#SvgjsPath1648" x="630" y="330" stroke="rgba(238, 0, 255, 0.17)"></use><use xlink:href="#SvgjsPath1645" x="630" y="390" stroke="rgba(142, 0, 255, 0.19)"></use><use xlink:href="#SvgjsPath1650" x="630" y="450" stroke="rgba(142, 0, 255, 0.19)" stroke-width="3"></use><use xlink:href="#SvgjsPath1645" x="630" y="510" stroke="rgba(238, 0, 255, 0.17)"></use><use xlink:href="#SvgjsPath1648" x="690" y="30" stroke="rgba(238, 0, 255, 0.17)"></use><use xlink:href="#SvgjsPath1649" x="690" y="90" stroke="rgba(238, 0, 255, 0.17)"></use><use xlink:href="#SvgjsPath1648" x="690" y="150" stroke="rgba(142, 0, 255, 0.19)"></use><use xlink:href="#SvgjsPath1648" x="690" y="210" stroke="rgba(142, 0, 255, 0.19)"></use><use xlink:href="#SvgjsPath1645" x="690" y="270" stroke="rgba(238, 0, 255, 0.17)"></use><use xlink:href="#SvgjsPath1645" x="690" y="330" stroke="rgba(238, 0, 255, 0.17)"></use><use xlink:href="#SvgjsPath1650" x="690" y="390" stroke="rgba(238, 0, 255, 0.17)" stroke-width="3"></use><use xlink:href="#SvgjsPath1648" x="690" y="450" stroke="rgba(238, 0, 255, 0.17)"></use><use xlink:href="#SvgjsPath1647" x="690" y="510" stroke="rgba(142, 0, 255, 0.19)"></use></symbol></svg>