<svg xmlns="http://www.w3.org/2000/svg" version="1.1" xmlns:xlink="http://www.w3.org/1999/xlink" xmlns:svgjs="http://svgjs.com/svgjs" width="1440" height="540" preserveAspectRatio="none" viewBox="0 0 1440 540"><g mask="url(&quot;#SvgjsMask1652&quot;)" fill="none"><rect width="1440" height="540" x="0" y="0" fill="rgba(0, 0, 0, 1)"></rect><use xlink:href="#SvgjsSymbol1659" x="0" y="0"></use><use xlink:href="#SvgjsSymbol1659" x="720" y="0"></use></g><defs><mask id="SvgjsMask1652"><rect width="1440" height="540" fill="#ffffff"></rect></mask><path d="M-1 0 a1 1 0 1 0 2 0 a1 1 0 1 0 -2 0z" id="SvgjsPath1654"></path><path d="M-3 0 a3 3 0 1 0 6 0 a3 3 0 1 0 -6 0z" id="SvgjsPath1655"></path><path d="M-5 0 a5 5 0 1 0 10 0 a5 5 0 1 0 -10 0z" id="SvgjsPath1653"></path><path d="M2 -2 L-2 2z" id="SvgjsPath1657"></path><path d="M6 -6 L-6 6z" id="SvgjsPath1656"></path><path d="M30 -30 L-30 30z" id="SvgjsPath1658"></path></defs><symbol id="SvgjsSymbol1659"><use xlink:href="#SvgjsPath1653" x="30" y="30" stroke="rgba(142, 0, 255, 0.19)"></use><use xlink:href="#SvgjsPath1654" x="30" y="90" stroke="rgba(238, 0, 255, 0.17)"></use><use xlink:href="#SvgjsPath1655" x="30" y="150" stroke="rgba(142, 0, 255, 0.19)"></use><use xlink:href="#SvgjsPath1654" x="30" y="210" stroke="rgba(238, 0, 255, 0.17)"></use><use xlink:href="#SvgjsPath1654" x="30" y="270" stroke="rgba(238, 0, 255, 0.17)"></use><use xlink:href="#SvgjsPath1656" x="30" y="330" stroke="rgba(238, 0, 255, 0.17)"></use><use xlink:href="#SvgjsPath1656" x="30" y="390" stroke="rgba(142, 0, 255, 0.19)"></use><use xlink:href="#SvgjsPath1653" x="30" y="450" stroke="rgba(238, 0, 255, 0.17)"></use><use xlink:href="#SvgjsPath1656" x="30" y="510" stroke="rgba(142, 0, 255, 0.19)"></use><use xlink:href="#SvgjsPath1653" x="90" y="30" stroke="rgba(238, 0, 255, 0.17)"></use><use xlink:href="#SvgjsPath1657" x="90" y="90" stroke="rgba(142, 0, 255, 0.19)"></use><use xlink:href="#SvgjsPath1656" x="90" y="150" stroke="rgba(238, 0, 255, 0.17)"></use><use xlink:href="#SvgjsPath1656" x="90" y="210" stroke="rgba(238, 0, 255, 0.17)"></use><use xlink:href="#SvgjsPath1656" x="90" y="270" stroke="rgba(238, 0, 255, 0.17)"></use><use xlink:href="#SvgjsPath1656" x="90" y="330" stroke="rgba(238, 0, 255, 0.17)"></use><use xlink:href="#SvgjsPath1656" x="90" y="390" stroke="rgba(238, 0, 255, 0.17)"></use><use xlink:href="#SvgjsPath1657" x="90" y="450" stroke="rgba(238, 0, 255, 0.17)"></use><use xlink:href="#SvgjsPath1656" x="90" y="510" stroke="rgba(142, 0, 255, 0.19)"></use><use xlink:href="#SvgjsPath1653" x="150" y="30" stroke="rgba(142, 0, 255, 0.19)"></use><use xlink:href="#SvgjsPath1656" x="150" y="90" stroke="rgba(238, 0, 255, 0.17)"></use><use xlink:href="#SvgjsPath1656" x="150" y="150" stroke="rgba(142, 0, 255, 0.19)"></use><use xlink:href="#SvgjsPath1657" x="150" y="210" stroke="rgba(238, 0, 255, 0.17)"></use><use xlink:href="#SvgjsPath1654" x="150" y="270" stroke="rgba(142, 0, 255, 0.19)"></use><use xlink:href="#SvgjsPath1657" x="150" y="330" stroke="rgba(142, 0, 255, 0.19)"></use><use xlink:href="#SvgjsPath1654" x="150" y="390" stroke="rgba(142, 0, 255, 0.19)"></use><use xlink:href="#SvgjsPath1658" x="150" y="450" stroke="rgba(142, 0, 255, 0.19)" stroke-width="3"></use><use xlink:href="#SvgjsPath1657" x="150" y="510" stroke="rgba(238, 0, 255, 0.17)"></use><use xlink:href="#SvgjsPath1656" x="210" y="30" stroke="rgba(142, 0, 255, 0.19)"></use><use xlink:href="#SvgjsPath1656" x="210" y="90" stroke="rgba(142, 0, 255, 0.19)"></use><use xlink:href="#SvgjsPath1657" x="210" y="150" stroke="rgba(142, 0, 255, 0.19)"></use><use xlink:href="#SvgjsPath1656" x="210" y="210" stroke="rgba(238, 0, 255, 0.17)"></use><use xlink:href="#SvgjsPath1653" x="210" y="270" stroke="rgba(142, 0, 255, 0.19)"></use><use xlink:href="#SvgjsPath1653" x="210" y="330" stroke="rgba(238, 0, 255, 0.17)"></use><use xlink:href="#SvgjsPath1657" x="210" y="390" stroke="rgba(238, 0, 255, 0.17)"></use><use xlink:href="#SvgjsPath1654" x="210" y="450" stroke="rgba(238, 0, 255, 0.17)"></use><use xlink:href="#SvgjsPath1656" x="210" y="510" stroke="rgba(238, 0, 255, 0.17)"></use><use xlink:href="#SvgjsPath1653" x="270" y="30" stroke="rgba(238, 0, 255, 0.17)"></use><use xlink:href="#SvgjsPath1657" x="270" y="90" stroke="rgba(142, 0, 255, 0.19)"></use><use xlink:href="#SvgjsPath1653" x="270" y="150" stroke="rgba(142, 0, 255, 0.19)"></use><use xlink:href="#SvgjsPath1655" x="270" y="210" stroke="rgba(142, 0, 255, 0.19)"></use><use xlink:href="#SvgjsPath1656" x="270" y="270" stroke="rgba(142, 0, 255, 0.19)"></use><use xlink:href="#SvgjsPath1653" x="270" y="330" stroke="rgba(238, 0, 255, 0.17)"></use><use xlink:href="#SvgjsPath1653" x="270" y="390" stroke="rgba(238, 0, 255, 0.17)"></use><use xlink:href="#SvgjsPath1653" x="270" y="450" stroke="rgba(238, 0, 255, 0.17)"></use><use xlink:href="#SvgjsPath1656" x="270" y="510" stroke="rgba(142, 0, 255, 0.19)"></use><use xlink:href="#SvgjsPath1655" x="330" y="30" stroke="rgba(238, 0, 255, 0.17)"></use><use xlink:href="#SvgjsPath1653" x="330" y="90" stroke="rgba(142, 0, 255, 0.19)"></use><use xlink:href="#SvgjsPath1656" x="330" y="150" stroke="rgba(238, 0, 255, 0.17)"></use><use xlink:href="#SvgjsPath1653" x="330" y="210" stroke="rgba(238, 0, 255, 0.17)"></use><use xlink:href="#SvgjsPath1653" x="330" y="270" stroke="rgba(238, 0, 255, 0.17)"></use><use xlink:href="#SvgjsPath1656" x="330" y="330" stroke="rgba(142, 0, 255, 0.19)"></use><use xlink:href="#SvgjsPath1655" x="330" y="390" stroke="rgba(142, 0, 255, 0.19)"></use><use xlink:href="#SvgjsPath1654" x="330" y="450" stroke="rgba(238, 0, 255, 0.17)"></use><use xlink:href="#SvgjsPath1653" x="330" y="510" stroke="rgba(238, 0, 255, 0.17)"></use><use xlink:href="#SvgjsPath1653" x="390" y="30" stroke="rgba(238, 0, 255, 0.17)"></use><use xlink:href="#SvgjsPath1656" x="390" y="90" stroke="rgba(238, 0, 255, 0.17)"></use><use xlink:href="#SvgjsPath1656" x="390" y="150" stroke="rgba(142, 0, 255, 0.19)"></use><use xlink:href="#SvgjsPath1653" x="390" y="210" stroke="rgba(238, 0, 255, 0.17)"></use><use xlink:href="#SvgjsPath1656" x="390" y="270" stroke="rgba(238, 0, 255, 0.17)"></use><use xlink:href="#SvgjsPath1653" x="390" y="330" stroke="rgba(238, 0, 255, 0.17)"></use><use xlink:href="#SvgjsPath1657" x="390" y="390" stroke="rgba(238, 0, 255, 0.17)"></use><use xlink:href="#SvgjsPath1655" x="390" y="450" stroke="rgba(238, 0, 255, 0.17)"></use><use xlink:href="#SvgjsPath1657" x="390" y="510" stroke="rgba(238, 0, 255, 0.17)"></use><use xlink:href="#SvgjsPath1658" x="450" y="30" stroke="rgba(238, 0, 255, 0.17)" stroke-width="3"></use><use xlink:href="#SvgjsPath1658" x="450" y="90" stroke="rgba(238, 0, 255, 0.17)" stroke-width="3"></use><use xlink:href="#SvgjsPath1658" x="450" y="150" stroke="rgba(238, 0, 255, 0.17)" stroke-width="3"></use><use xlink:href="#SvgjsPath1653" x="450" y="210" stroke="rgba(238, 0, 255, 0.17)"></use><use xlink:href="#SvgjsPath1655" x="450" y="270" stroke="rgba(238, 0, 255, 0.17)"></use><use xlink:href="#SvgjsPath1657" x="450" y="330" stroke="rgba(238, 0, 255, 0.17)"></use><use xlink:href="#SvgjsPath1657" x="450" y="390" stroke="rgba(238, 0, 255, 0.17)"></use><use xlink:href="#SvgjsPath1653" x="450" y="450" stroke="rgba(238, 0, 255, 0.17)"></use><use xlink:href="#SvgjsPath1656" x="450" y="510" stroke="rgba(142, 0, 255, 0.19)"></use><use xlink:href="#SvgjsPath1656" x="510" y="30" stroke="rgba(142, 0, 255, 0.19)"></use><use xlink:href="#SvgjsPath1657" x="510" y="90" stroke="rgba(142, 0, 255, 0.19)"></use><use xlink:href="#SvgjsPath1656" x="510" y="150" stroke="rgba(142, 0, 255, 0.19)"></use><use xlink:href="#SvgjsPath1657" x="510" y="210" stroke="rgba(238, 0, 255, 0.17)"></use><use xlink:href="#SvgjsPath1657" x="510" y="270" stroke="rgba(142, 0, 255, 0.19)"></use><use xlink:href="#SvgjsPath1653" x="510" y="330" stroke="rgba(142, 0, 255, 0.19)"></use><use xlink:href="#SvgjsPath1656" x="510" y="390" stroke="rgba(142, 0, 255, 0.19)"></use><use xlink:href="#SvgjsPath1653" x="510" y="450" stroke="rgba(142, 0, 255, 0.19)"></use><use xlink:href="#SvgjsPath1655" x="510" y="510" stroke="rgba(238, 0, 255, 0.17)"></use><use xlink:href="#SvgjsPath1653" x="570" y="30" stroke="rgba(238, 0, 255, 0.17)"></use><use xlink:href="#SvgjsPath1653" x="570" y="90" stroke="rgba(142, 0, 255, 0.19)"></use><use xlink:href="#SvgjsPath1658" x="570" y="150" stroke="rgba(238, 0, 255, 0.17)" stroke-width="3"></use><use xlink:href="#SvgjsPath1656" x="570" y="210" stroke="rgba(142, 0, 255, 0.19)"></use><use xlink:href="#SvgjsPath1653" x="570" y="270" stroke="rgba(238, 0, 255, 0.17)"></use><use xlink:href="#SvgjsPath1656" x="570" y="330" stroke="rgba(238, 0, 255, 0.17)"></use><use xlink:href="#SvgjsPath1657" x="570" y="390" stroke="rgba(142, 0, 255, 0.19)"></use><use xlink:href="#SvgjsPath1657" x="570" y="450" stroke="rgba(238, 0, 255, 0.17)"></use><use xlink:href="#SvgjsPath1656" x="570" y="510" stroke="rgba(238, 0, 255, 0.17)"></use><use xlink:href="#SvgjsPath1657" x="630" y="30" stroke="rgba(238, 0, 255, 0.17)"></use><use xlink:href="#SvgjsPath1656" x="630" y="90" stroke="rgba(142, 0, 255, 0.19)"></use><use xlink:href="#SvgjsPath1654" x="630" y="150" stroke="rgba(238, 0, 255, 0.17)"></use><use xlink:href="#SvgjsPath1656" x="630" y="210" stroke="rgba(238, 0, 255, 0.17)"></use><use xlink:href="#SvgjsPath1655" x="630" y="270" stroke="rgba(142, 0, 255, 0.19)"></use><use xlink:href="#SvgjsPath1656" x="630" y="330" stroke="rgba(238, 0, 255, 0.17)"></use><use xlink:href="#SvgjsPath1653" x="630" y="390" stroke="rgba(142, 0, 255, 0.19)"></use><use xlink:href="#SvgjsPath1658" x="630" y="450" stroke="rgba(142, 0, 255, 0.19)" stroke-width="3"></use><use xlink:href="#SvgjsPath1653" x="630" y="510" stroke="rgba(238, 0, 255, 0.17)"></use><use xlink:href="#SvgjsPath1656" x="690" y="30" stroke="rgba(238, 0, 255, 0.17)"></use><use xlink:href="#SvgjsPath1657" x="690" y="90" stroke="rgba(238, 0, 255, 0.17)"></use><use xlink:href="#SvgjsPath1656" x="690" y="150" stroke="rgba(142, 0, 255, 0.19)"></use><use xlink:href="#SvgjsPath1656" x="690" y="210" stroke="rgba(142, 0, 255, 0.19)"></use><use xlink:href="#SvgjsPath1653" x="690" y="270" stroke="rgba(238, 0, 255, 0.17)"></use><use xlink:href="#SvgjsPath1653" x="690" y="330" stroke="rgba(238, 0, 255, 0.17)"></use><use xlink:href="#SvgjsPath1658" x="690" y="390" stroke="rgba(238, 0, 255, 0.17)" stroke-width="3"></use><use xlink:href="#SvgjsPath1656" x="690" y="450" stroke="rgba(238, 0, 255, 0.17)"></use><use xlink:href="#SvgjsPath1655" x="690" y="510" stroke="rgba(142, 0, 255, 0.19)"></use></symbol></svg>