<svg xmlns="http://www.w3.org/2000/svg" version="1.1" xmlns:xlink="http://www.w3.org/1999/xlink" xmlns:svgjs="http://svgjs.com/svgjs" width="1440" height="540" preserveAspectRatio="none" viewBox="0 0 1440 540"><g mask="url(&quot;#SvgjsMask1589&quot;)" fill="none"><rect width="1440" height="540" x="0" y="0" fill="url(#SvgjsLinearGradient1590)"></rect><use xlink:href="#SvgjsSymbol1597" x="0" y="0"></use><use xlink:href="#SvgjsSymbol1597" x="720" y="0"></use></g><defs><mask id="SvgjsMask1589"><rect width="1440" height="540" fill="#ffffff"></rect></mask><linearGradient x1="50%" y1="0%" x2="50%" y2="100%" gradientUnits="userSpaceOnUse" id="SvgjsLinearGradient1590"><stop stop-color="rgba(44, 14, 71, 1)" offset="0"></stop><stop stop-color="rgba(1, 1, 1, 1)" offset="1"></stop></linearGradient><path d="M-1 0 a1 1 0 1 0 2 0 a1 1 0 1 0 -2 0z" id="SvgjsPath1592"></path><path d="M-3 0 a3 3 0 1 0 6 0 a3 3 0 1 0 -6 0z" id="SvgjsPath1593"></path><path d="M-5 0 a5 5 0 1 0 10 0 a5 5 0 1 0 -10 0z" id="SvgjsPath1591"></path><path d="M2 -2 L-2 2z" id="SvgjsPath1595"></path><path d="M6 -6 L-6 6z" id="SvgjsPath1594"></path><path d="M30 -30 L-30 30z" id="SvgjsPath1596"></path></defs><symbol id="SvgjsSymbol1597"><use xlink:href="#SvgjsPath1591" x="30" y="30" stroke="rgba(142, 0, 255, 0.19)"></use><use xlink:href="#SvgjsPath1592" x="30" y="90" stroke="rgba(238, 0, 255, 0.17)"></use><use xlink:href="#SvgjsPath1593" x="30" y="150" stroke="rgba(142, 0, 255, 0.19)"></use><use xlink:href="#SvgjsPath1592" x="30" y="210" stroke="rgba(238, 0, 255, 0.17)"></use><use xlink:href="#SvgjsPath1592" x="30" y="270" stroke="rgba(238, 0, 255, 0.17)"></use><use xlink:href="#SvgjsPath1594" x="30" y="330" stroke="rgba(238, 0, 255, 0.17)"></use><use xlink:href="#SvgjsPath1594" x="30" y="390" stroke="rgba(142, 0, 255, 0.19)"></use><use xlink:href="#SvgjsPath1591" x="30" y="450" stroke="rgba(238, 0, 255, 0.17)"></use><use xlink:href="#SvgjsPath1594" x="30" y="510" stroke="rgba(142, 0, 255, 0.19)"></use><use xlink:href="#SvgjsPath1591" x="90" y="30" stroke="rgba(238, 0, 255, 0.17)"></use><use xlink:href="#SvgjsPath1595" x="90" y="90" stroke="rgba(142, 0, 255, 0.19)"></use><use xlink:href="#SvgjsPath1594" x="90" y="150" stroke="rgba(238, 0, 255, 0.17)"></use><use xlink:href="#SvgjsPath1594" x="90" y="210" stroke="rgba(238, 0, 255, 0.17)"></use><use xlink:href="#SvgjsPath1594" x="90" y="270" stroke="rgba(238, 0, 255, 0.17)"></use><use xlink:href="#SvgjsPath1594" x="90" y="330" stroke="rgba(238, 0, 255, 0.17)"></use><use xlink:href="#SvgjsPath1594" x="90" y="390" stroke="rgba(238, 0, 255, 0.17)"></use><use xlink:href="#SvgjsPath1595" x="90" y="450" stroke="rgba(238, 0, 255, 0.17)"></use><use xlink:href="#SvgjsPath1594" x="90" y="510" stroke="rgba(142, 0, 255, 0.19)"></use><use xlink:href="#SvgjsPath1591" x="150" y="30" stroke="rgba(142, 0, 255, 0.19)"></use><use xlink:href="#SvgjsPath1594" x="150" y="90" stroke="rgba(238, 0, 255, 0.17)"></use><use xlink:href="#SvgjsPath1594" x="150" y="150" stroke="rgba(142, 0, 255, 0.19)"></use><use xlink:href="#SvgjsPath1595" x="150" y="210" stroke="rgba(238, 0, 255, 0.17)"></use><use xlink:href="#SvgjsPath1592" x="150" y="270" stroke="rgba(142, 0, 255, 0.19)"></use><use xlink:href="#SvgjsPath1595" x="150" y="330" stroke="rgba(142, 0, 255, 0.19)"></use><use xlink:href="#SvgjsPath1592" x="150" y="390" stroke="rgba(142, 0, 255, 0.19)"></use><use xlink:href="#SvgjsPath1596" x="150" y="450" stroke="rgba(142, 0, 255, 0.19)" stroke-width="3"></use><use xlink:href="#SvgjsPath1595" x="150" y="510" stroke="rgba(238, 0, 255, 0.17)"></use><use xlink:href="#SvgjsPath1594" x="210" y="30" stroke="rgba(142, 0, 255, 0.19)"></use><use xlink:href="#SvgjsPath1594" x="210" y="90" stroke="rgba(142, 0, 255, 0.19)"></use><use xlink:href="#SvgjsPath1595" x="210" y="150" stroke="rgba(142, 0, 255, 0.19)"></use><use xlink:href="#SvgjsPath1594" x="210" y="210" stroke="rgba(238, 0, 255, 0.17)"></use><use xlink:href="#SvgjsPath1591" x="210" y="270" stroke="rgba(142, 0, 255, 0.19)"></use><use xlink:href="#SvgjsPath1591" x="210" y="330" stroke="rgba(238, 0, 255, 0.17)"></use><use xlink:href="#SvgjsPath1595" x="210" y="390" stroke="rgba(238, 0, 255, 0.17)"></use><use xlink:href="#SvgjsPath1592" x="210" y="450" stroke="rgba(238, 0, 255, 0.17)"></use><use xlink:href="#SvgjsPath1594" x="210" y="510" stroke="rgba(238, 0, 255, 0.17)"></use><use xlink:href="#SvgjsPath1591" x="270" y="30" stroke="rgba(238, 0, 255, 0.17)"></use><use xlink:href="#SvgjsPath1595" x="270" y="90" stroke="rgba(142, 0, 255, 0.19)"></use><use xlink:href="#SvgjsPath1591" x="270" y="150" stroke="rgba(142, 0, 255, 0.19)"></use><use xlink:href="#SvgjsPath1593" x="270" y="210" stroke="rgba(142, 0, 255, 0.19)"></use><use xlink:href="#SvgjsPath1594" x="270" y="270" stroke="rgba(142, 0, 255, 0.19)"></use><use xlink:href="#SvgjsPath1591" x="270" y="330" stroke="rgba(238, 0, 255, 0.17)"></use><use xlink:href="#SvgjsPath1591" x="270" y="390" stroke="rgba(238, 0, 255, 0.17)"></use><use xlink:href="#SvgjsPath1591" x="270" y="450" stroke="rgba(238, 0, 255, 0.17)"></use><use xlink:href="#SvgjsPath1594" x="270" y="510" stroke="rgba(142, 0, 255, 0.19)"></use><use xlink:href="#SvgjsPath1593" x="330" y="30" stroke="rgba(238, 0, 255, 0.17)"></use><use xlink:href="#SvgjsPath1591" x="330" y="90" stroke="rgba(142, 0, 255, 0.19)"></use><use xlink:href="#SvgjsPath1594" x="330" y="150" stroke="rgba(238, 0, 255, 0.17)"></use><use xlink:href="#SvgjsPath1591" x="330" y="210" stroke="rgba(238, 0, 255, 0.17)"></use><use xlink:href="#SvgjsPath1591" x="330" y="270" stroke="rgba(238, 0, 255, 0.17)"></use><use xlink:href="#SvgjsPath1594" x="330" y="330" stroke="rgba(142, 0, 255, 0.19)"></use><use xlink:href="#SvgjsPath1593" x="330" y="390" stroke="rgba(142, 0, 255, 0.19)"></use><use xlink:href="#SvgjsPath1592" x="330" y="450" stroke="rgba(238, 0, 255, 0.17)"></use><use xlink:href="#SvgjsPath1591" x="330" y="510" stroke="rgba(238, 0, 255, 0.17)"></use><use xlink:href="#SvgjsPath1591" x="390" y="30" stroke="rgba(238, 0, 255, 0.17)"></use><use xlink:href="#SvgjsPath1594" x="390" y="90" stroke="rgba(238, 0, 255, 0.17)"></use><use xlink:href="#SvgjsPath1594" x="390" y="150" stroke="rgba(142, 0, 255, 0.19)"></use><use xlink:href="#SvgjsPath1591" x="390" y="210" stroke="rgba(238, 0, 255, 0.17)"></use><use xlink:href="#SvgjsPath1594" x="390" y="270" stroke="rgba(238, 0, 255, 0.17)"></use><use xlink:href="#SvgjsPath1591" x="390" y="330" stroke="rgba(238, 0, 255, 0.17)"></use><use xlink:href="#SvgjsPath1595" x="390" y="390" stroke="rgba(238, 0, 255, 0.17)"></use><use xlink:href="#SvgjsPath1593" x="390" y="450" stroke="rgba(238, 0, 255, 0.17)"></use><use xlink:href="#SvgjsPath1595" x="390" y="510" stroke="rgba(238, 0, 255, 0.17)"></use><use xlink:href="#SvgjsPath1596" x="450" y="30" stroke="rgba(238, 0, 255, 0.17)" stroke-width="3"></use><use xlink:href="#SvgjsPath1596" x="450" y="90" stroke="rgba(238, 0, 255, 0.17)" stroke-width="3"></use><use xlink:href="#SvgjsPath1596" x="450" y="150" stroke="rgba(238, 0, 255, 0.17)" stroke-width="3"></use><use xlink:href="#SvgjsPath1591" x="450" y="210" stroke="rgba(238, 0, 255, 0.17)"></use><use xlink:href="#SvgjsPath1593" x="450" y="270" stroke="rgba(238, 0, 255, 0.17)"></use><use xlink:href="#SvgjsPath1595" x="450" y="330" stroke="rgba(238, 0, 255, 0.17)"></use><use xlink:href="#SvgjsPath1595" x="450" y="390" stroke="rgba(238, 0, 255, 0.17)"></use><use xlink:href="#SvgjsPath1591" x="450" y="450" stroke="rgba(238, 0, 255, 0.17)"></use><use xlink:href="#SvgjsPath1594" x="450" y="510" stroke="rgba(142, 0, 255, 0.19)"></use><use xlink:href="#SvgjsPath1594" x="510" y="30" stroke="rgba(142, 0, 255, 0.19)"></use><use xlink:href="#SvgjsPath1595" x="510" y="90" stroke="rgba(142, 0, 255, 0.19)"></use><use xlink:href="#SvgjsPath1594" x="510" y="150" stroke="rgba(142, 0, 255, 0.19)"></use><use xlink:href="#SvgjsPath1595" x="510" y="210" stroke="rgba(238, 0, 255, 0.17)"></use><use xlink:href="#SvgjsPath1595" x="510" y="270" stroke="rgba(142, 0, 255, 0.19)"></use><use xlink:href="#SvgjsPath1591" x="510" y="330" stroke="rgba(142, 0, 255, 0.19)"></use><use xlink:href="#SvgjsPath1594" x="510" y="390" stroke="rgba(142, 0, 255, 0.19)"></use><use xlink:href="#SvgjsPath1591" x="510" y="450" stroke="rgba(142, 0, 255, 0.19)"></use><use xlink:href="#SvgjsPath1593" x="510" y="510" stroke="rgba(238, 0, 255, 0.17)"></use><use xlink:href="#SvgjsPath1591" x="570" y="30" stroke="rgba(238, 0, 255, 0.17)"></use><use xlink:href="#SvgjsPath1591" x="570" y="90" stroke="rgba(142, 0, 255, 0.19)"></use><use xlink:href="#SvgjsPath1596" x="570" y="150" stroke="rgba(238, 0, 255, 0.17)" stroke-width="3"></use><use xlink:href="#SvgjsPath1594" x="570" y="210" stroke="rgba(142, 0, 255, 0.19)"></use><use xlink:href="#SvgjsPath1591" x="570" y="270" stroke="rgba(238, 0, 255, 0.17)"></use><use xlink:href="#SvgjsPath1594" x="570" y="330" stroke="rgba(238, 0, 255, 0.17)"></use><use xlink:href="#SvgjsPath1595" x="570" y="390" stroke="rgba(142, 0, 255, 0.19)"></use><use xlink:href="#SvgjsPath1595" x="570" y="450" stroke="rgba(238, 0, 255, 0.17)"></use><use xlink:href="#SvgjsPath1594" x="570" y="510" stroke="rgba(238, 0, 255, 0.17)"></use><use xlink:href="#SvgjsPath1595" x="630" y="30" stroke="rgba(238, 0, 255, 0.17)"></use><use xlink:href="#SvgjsPath1594" x="630" y="90" stroke="rgba(142, 0, 255, 0.19)"></use><use xlink:href="#SvgjsPath1592" x="630" y="150" stroke="rgba(238, 0, 255, 0.17)"></use><use xlink:href="#SvgjsPath1594" x="630" y="210" stroke="rgba(238, 0, 255, 0.17)"></use><use xlink:href="#SvgjsPath1593" x="630" y="270" stroke="rgba(142, 0, 255, 0.19)"></use><use xlink:href="#SvgjsPath1594" x="630" y="330" stroke="rgba(238, 0, 255, 0.17)"></use><use xlink:href="#SvgjsPath1591" x="630" y="390" stroke="rgba(142, 0, 255, 0.19)"></use><use xlink:href="#SvgjsPath1596" x="630" y="450" stroke="rgba(142, 0, 255, 0.19)" stroke-width="3"></use><use xlink:href="#SvgjsPath1591" x="630" y="510" stroke="rgba(238, 0, 255, 0.17)"></use><use xlink:href="#SvgjsPath1594" x="690" y="30" stroke="rgba(238, 0, 255, 0.17)"></use><use xlink:href="#SvgjsPath1595" x="690" y="90" stroke="rgba(238, 0, 255, 0.17)"></use><use xlink:href="#SvgjsPath1594" x="690" y="150" stroke="rgba(142, 0, 255, 0.19)"></use><use xlink:href="#SvgjsPath1594" x="690" y="210" stroke="rgba(142, 0, 255, 0.19)"></use><use xlink:href="#SvgjsPath1591" x="690" y="270" stroke="rgba(238, 0, 255, 0.17)"></use><use xlink:href="#SvgjsPath1591" x="690" y="330" stroke="rgba(238, 0, 255, 0.17)"></use><use xlink:href="#SvgjsPath1596" x="690" y="390" stroke="rgba(238, 0, 255, 0.17)" stroke-width="3"></use><use xlink:href="#SvgjsPath1594" x="690" y="450" stroke="rgba(238, 0, 255, 0.17)"></use><use xlink:href="#SvgjsPath1593" x="690" y="510" stroke="rgba(142, 0, 255, 0.19)"></use></symbol></svg>